<?xml version="1.0" standalone="no"?>
<!DOCTYPE svg PUBLIC "-//W3C//DTD SVG 20010904//EN"
 "http://www.w3.org/TR/2001/REC-SVG-20010904/DTD/svg10.dtd">
<svg version="1.0" xmlns="http://www.w3.org/2000/svg"
 width="2048.000000pt" height="2048.000000pt" viewBox="0 0 2048.000000 2048.000000"
 preserveAspectRatio="xMidYMid meet">
<metadata>
Created by potrace 1.14, written by Peter Selinger 2001-2017
</metadata>
<g transform="translate(0.000000,2048.000000) scale(0.100000,-0.100000)"
fill="#000000" stroke="none">
<path d="M9848 20475 c-2 -2 -61 -6 -133 -9 -245 -13 -383 -24 -625 -51 -19
-2 -60 -7 -90 -10 -51 -6 -87 -10 -150 -20 -14 -2 -47 -7 -75 -11 -27 -3 -59
-8 -70 -10 -11 -2 -40 -7 -65 -10 -25 -3 -54 -8 -65 -10 -24 -5 -42 -8 -163
-29 -52 -9 -149 -27 -215 -41 -67 -15 -140 -30 -162 -34 -22 -5 -89 -21 -150
-35 -60 -15 -118 -28 -127 -30 -9 -2 -61 -15 -115 -30 -54 -15 -105 -28 -114
-30 -126 -27 -697 -214 -944 -310 -164 -63 -202 -78 -230 -91 -16 -7 -59 -25
-95 -39 -36 -15 -93 -40 -128 -56 -34 -16 -64 -29 -66 -29 -2 0 -39 -17 -83
-37 -43 -21 -80 -38 -83 -38 -9 -1 -411 -203 -507 -254 -230 -124 -774 -449
-803 -481 -3 -3 -59 -41 -125 -85 -66 -44 -122 -82 -125 -85 -3 -3 -45 -34
-95 -69 -49 -35 -91 -68 -93 -72 -2 -5 -8 -9 -13 -9 -11 0 -153 -109 -157
-121 -2 -5 -9 -9 -15 -9 -7 0 -28 -15 -48 -33 -21 -17 -48 -40 -60 -49 -47
-34 -293 -240 -375 -313 -12 -11 -53 -47 -90 -80 -250 -219 -694 -673 -909
-929 -22 -26 -49 -58 -60 -70 -60 -68 -223 -270 -295 -365 -14 -18 -30 -38
-35 -44 -6 -7 -22 -28 -35 -47 -13 -19 -28 -39 -32 -45 -41 -52 -122 -163
-158 -215 -24 -36 -48 -69 -52 -75 -7 -9 -33 -47 -88 -129 -8 -13 -24 -36 -34
-52 -38 -56 -123 -190 -152 -237 -16 -27 -36 -59 -44 -72 -39 -62 -150 -253
-161 -277 -7 -16 -16 -28 -21 -28 -4 0 -8 -4 -8 -8 0 -4 -36 -75 -81 -157
-403 -750 -704 -1523 -914 -2350 -54 -212 -141 -614 -159 -735 -3 -19 -10 -62
-16 -95 -16 -94 -39 -247 -45 -301 -6 -49 -13 -108 -20 -154 -5 -35 -14 -114
-30 -261 -3 -26 -7 -84 -11 -130 -3 -46 -7 -104 -9 -129 -27 -299 -27 -1171 0
-1435 2 -22 7 -71 10 -110 6 -80 15 -176 20 -220 1 -16 6 -59 10 -95 4 -36 8
-76 10 -90 2 -14 7 -50 10 -80 3 -30 8 -62 10 -70 2 -8 7 -39 10 -69 4 -30 9
-63 11 -75 2 -11 6 -36 9 -56 3 -20 7 -45 9 -55 2 -11 7 -40 10 -65 4 -25 11
-65 16 -90 5 -25 11 -58 14 -75 2 -16 9 -55 16 -85 6 -30 13 -66 15 -80 3 -14
11 -54 19 -90 8 -36 23 -105 34 -155 29 -132 104 -418 157 -601 46 -157 167
-530 185 -569 5 -11 25 -63 44 -115 128 -358 378 -911 580 -1285 24 -44 58
-107 76 -140 56 -103 302 -510 311 -513 5 -2 9 -7 9 -12 0 -8 158 -252 177
-275 5 -5 29 -39 53 -75 35 -52 207 -284 325 -439 28 -38 169 -212 191 -237
11 -12 37 -43 59 -70 22 -26 49 -58 60 -70 11 -12 39 -44 61 -71 67 -77 78
-90 186 -206 215 -232 590 -596 768 -746 14 -12 44 -38 68 -59 24 -20 49 -42
55 -47 241 -208 891 -695 927 -695 6 0 10 -4 10 -10 0 -5 4 -10 10 -10 8 0 97
-57 110 -70 4 -5 97 -63 168 -105 9 -6 36 -23 59 -38 24 -15 45 -27 48 -27 2
0 31 -17 62 -37 32 -21 72 -44 88 -53 42 -22 287 -159 305 -170 55 -33 544
-271 680 -330 91 -40 180 -79 199 -87 42 -19 332 -134 346 -137 6 -2 24 -8 40
-15 17 -6 44 -16 60 -22 17 -6 39 -15 50 -19 56 -24 526 -176 605 -196 8 -2
49 -13 90 -25 75 -21 131 -36 160 -43 8 -2 44 -12 80 -21 36 -9 76 -19 90 -21
14 -3 32 -7 40 -10 8 -3 26 -8 40 -10 14 -3 41 -9 60 -14 19 -5 46 -11 60 -14
14 -3 99 -21 190 -40 91 -19 181 -37 200 -40 19 -3 62 -11 95 -16 33 -6 74
-13 90 -15 40 -5 96 -15 115 -20 8 -2 42 -7 75 -10 33 -3 67 -7 75 -9 8 -3 40
-7 70 -11 30 -3 66 -7 80 -10 14 -2 52 -7 85 -10 81 -8 131 -13 190 -20 28 -3
86 -8 130 -11 44 -3 98 -7 120 -9 306 -26 1159 -26 1435 0 19 1 73 6 120 10
47 3 101 8 120 10 19 2 64 7 100 10 36 4 79 9 95 11 17 1 55 6 85 9 30 3 66 8
80 10 14 2 63 9 110 15 47 6 108 15 135 20 28 5 68 12 90 15 54 8 95 14 125
20 38 8 70 14 130 25 30 6 64 12 75 14 41 8 321 68 335 72 8 2 44 11 80 19 36
9 73 17 82 20 9 2 61 16 115 30 54 15 103 28 108 29 18 4 128 36 196 57 37 11
75 21 85 24 84 17 578 192 839 297 155 62 164 65 278 117 38 17 70 31 72 31
17 0 565 268 588 288 9 8 17 12 17 8 0 -4 13 2 29 13 16 12 32 21 35 21 9 0
258 140 396 222 212 126 452 282 670 436 207 146 496 366 531 404 9 10 19 18
23 18 3 0 16 9 28 19 13 11 34 29 48 41 14 12 47 40 75 63 40 34 168 145 221
192 205 181 734 712 734 737 0 5 5 6 10 3 6 -3 10 -2 10 3 0 8 62 82 123 144
15 16 27 31 27 35 0 3 8 13 18 22 14 13 86 98 147 173 78 95 110 134 120 145
7 7 23 28 35 48 12 19 26 35 31 35 5 0 9 5 9 10 0 6 7 18 16 28 24 25 214 281
214 288 0 2 4 10 10 17 38 46 57 74 63 89 3 10 11 18 17 18 5 0 10 4 10 9 0 6
20 38 44 73 84 120 356 552 356 565 0 3 8 17 18 31 11 15 32 52 49 82 30 56
61 111 110 198 54 97 260 511 307 617 27 61 59 133 71 160 12 28 33 75 45 105
13 30 27 59 32 65 4 5 8 15 8 23 0 8 6 28 14 45 8 18 29 68 46 112 18 44 35
89 40 100 8 19 20 52 89 245 117 330 246 774 322 1110 20 89 84 403 93 455 17
97 56 336 61 370 18 126 26 186 31 235 2 30 7 66 9 80 3 14 8 57 11 95 3 39 8
84 10 100 1 17 6 71 9 120 4 50 9 106 10 125 13 135 20 398 20 715 0 378 -8
604 -30 840 -3 33 -8 89 -10 125 -3 36 -7 81 -10 100 -3 19 -7 53 -10 75 -9
85 -15 135 -20 167 -2 18 -9 69 -15 113 -6 44 -13 91 -16 105 -2 14 -7 45 -10
70 -3 25 -8 54 -10 65 -3 11 -7 36 -10 55 -7 48 -13 81 -18 105 -2 11 -11 61
-21 110 -9 50 -32 162 -52 250 -19 88 -36 167 -38 175 -11 52 -100 389 -121
460 -174 584 -311 951 -537 1450 -85 186 -296 602 -368 725 -10 17 -29 52 -44
78 -50 93 -208 352 -217 355 -4 2 -8 8 -8 13 0 10 -179 290 -191 299 -4 3 -15
19 -25 37 -26 42 -201 288 -219 307 -8 8 -15 17 -15 21 0 5 -69 97 -132 175
-16 19 -32 40 -36 45 -4 6 -34 44 -67 85 -84 105 -88 110 -110 135 -11 13 -36
42 -55 65 -19 23 -44 52 -55 65 -11 12 -38 44 -60 70 -22 25 -51 59 -65 74
-14 15 -68 73 -120 131 -113 123 -456 466 -564 565 -43 39 -98 90 -124 113
-26 24 -63 56 -82 70 -19 15 -46 39 -60 53 -14 14 -53 49 -87 77 -34 28 -68
55 -75 61 -29 25 -65 54 -97 79 -19 15 -40 33 -47 40 -7 6 -17 12 -23 12 -6 0
-11 4 -11 8 0 5 -18 21 -41 38 -22 16 -46 34 -52 39 -7 6 -77 59 -157 118 -80
60 -153 114 -163 122 -9 8 -20 15 -23 15 -8 0 -78 53 -82 63 -2 4 -8 7 -12 7
-9 0 -159 99 -170 111 -8 10 -326 207 -465 289 -433 255 -955 509 -1415 690
-74 29 -144 56 -155 61 -75 33 -475 167 -685 231 -189 57 -684 184 -796 204
-14 3 -91 18 -172 34 -140 27 -412 74 -497 85 -21 2 -75 10 -120 16 -105 14
-118 16 -195 24 -36 3 -76 8 -90 10 -14 2 -59 7 -100 10 -41 4 -91 8 -110 10
-19 2 -76 7 -125 10 -50 3 -117 8 -150 11 -70 5 -962 13 -967 9z"/>
</g>
</svg>
